<svg width="1200" height="628" viewBox="0 0 1200 628" fill="none" xmlns="http://www.w3.org/2000/svg">
<rect width="1200" height="628" fill="#101D42"/>
<path d="M581.8 303.1C583.933 303.1 585.833 303.55 587.5 304.45C589.167 305.317 590.483 306.633 591.45 308.4C592.417 310.167 592.9 312.317 592.9 314.85V331H588.4V315.5C588.4 312.767 587.717 310.683 586.35 309.25C585.017 307.783 583.2 307.05 580.9 307.05C578.533 307.05 576.65 307.817 575.25 309.35C573.85 310.85 573.15 313.033 573.15 315.9V331H568.65V315.5C568.65 312.767 567.967 310.683 566.6 309.25C565.267 307.783 563.45 307.05 561.15 307.05C558.783 307.05 556.9 307.817 555.5 309.35C554.1 310.85 553.4 313.033 553.4 315.9V331H548.85V303.6H553.4V307.55C554.3 306.117 555.5 305.017 557 304.25C558.533 303.483 560.217 303.1 562.05 303.1C564.35 303.1 566.383 303.617 568.15 304.65C569.917 305.683 571.233 307.2 572.1 309.2C572.867 307.267 574.133 305.767 575.9 304.7C577.667 303.633 579.633 303.1 581.8 303.1ZM598.664 317.2C598.664 314.4 599.23 311.95 600.364 309.85C601.497 307.717 603.047 306.067 605.014 304.9C607.014 303.733 609.23 303.15 611.664 303.15C614.064 303.15 616.147 303.667 617.914 304.7C619.68 305.733 620.997 307.033 621.864 308.6V303.6H626.464V331H621.864V325.9C620.964 327.5 619.614 328.833 617.814 329.9C616.047 330.933 613.98 331.45 611.614 331.45C609.18 331.45 606.98 330.85 605.014 329.65C603.047 328.45 601.497 326.767 600.364 324.6C599.23 322.433 598.664 319.967 598.664 317.2ZM621.864 317.25C621.864 315.183 621.447 313.383 620.614 311.85C619.78 310.317 618.647 309.15 617.214 308.35C615.814 307.517 614.264 307.1 612.564 307.1C610.864 307.1 609.314 307.5 607.914 308.3C606.514 309.1 605.397 310.267 604.564 311.8C603.73 313.333 603.314 315.133 603.314 317.2C603.314 319.3 603.73 321.133 604.564 322.7C605.397 324.233 606.514 325.417 607.914 326.25C609.314 327.05 610.864 327.45 612.564 327.45C614.264 327.45 615.814 327.05 617.214 326.25C618.647 325.417 619.78 324.233 620.614 322.7C621.447 321.133 621.864 319.317 621.864 317.25ZM645.453 303.15C647.819 303.15 649.886 303.667 651.653 304.7C653.453 305.733 654.786 307.033 655.653 308.6V303.6H660.253V331.6C660.253 334.1 659.719 336.317 658.653 338.25C657.586 340.217 656.053 341.75 654.053 342.85C652.086 343.95 649.786 344.5 647.153 344.5C643.553 344.5 640.553 343.65 638.153 341.95C635.753 340.25 634.336 337.933 633.903 335H638.403C638.903 336.667 639.936 338 641.503 339C643.069 340.033 644.953 340.55 647.153 340.55C649.653 340.55 651.686 339.767 653.253 338.2C654.853 336.633 655.653 334.433 655.653 331.6V325.85C654.753 327.45 653.419 328.783 651.653 329.85C649.886 330.917 647.819 331.45 645.453 331.45C643.019 331.45 640.803 330.85 638.803 329.65C636.836 328.45 635.286 326.767 634.153 324.6C633.019 322.433 632.453 319.967 632.453 317.2C632.453 314.4 633.019 311.95 634.153 309.85C635.286 307.717 636.836 306.067 638.803 304.9C640.803 303.733 643.019 303.15 645.453 303.15ZM655.653 317.25C655.653 315.183 655.236 313.383 654.403 311.85C653.569 310.317 652.436 309.15 651.003 308.35C649.603 307.517 648.053 307.1 646.353 307.1C644.653 307.1 643.103 307.5 641.703 308.3C640.303 309.1 639.186 310.267 638.353 311.8C637.519 313.333 637.103 315.133 637.103 317.2C637.103 319.3 637.519 321.133 638.353 322.7C639.186 324.233 640.303 325.417 641.703 326.25C643.103 327.05 644.653 327.45 646.353 327.45C648.053 327.45 649.603 327.05 651.003 326.25C652.436 325.417 653.569 324.233 654.403 322.7C655.236 321.133 655.653 319.317 655.653 317.25ZM666.242 317.2C666.242 314.4 666.808 311.95 667.942 309.85C669.075 307.717 670.625 306.067 672.592 304.9C674.592 303.733 676.808 303.15 679.242 303.15C681.642 303.15 683.725 303.667 685.492 304.7C687.258 305.733 688.575 307.033 689.442 308.6V303.6H694.042V331H689.442V325.9C688.542 327.5 687.192 328.833 685.392 329.9C683.625 330.933 681.558 331.45 679.192 331.45C676.758 331.45 674.558 330.85 672.592 329.65C670.625 328.45 669.075 326.767 667.942 324.6C666.808 322.433 666.242 319.967 666.242 317.2ZM689.442 317.25C689.442 315.183 689.025 313.383 688.192 311.85C687.358 310.317 686.225 309.15 684.792 308.35C683.392 307.517 681.842 307.1 680.142 307.1C678.442 307.1 676.892 307.5 675.492 308.3C674.092 309.1 672.975 310.267 672.142 311.8C671.308 313.333 670.892 315.133 670.892 317.2C670.892 319.3 671.308 321.133 672.142 322.7C672.975 324.233 674.092 325.417 675.492 326.25C676.892 327.05 678.442 327.45 680.142 327.45C681.842 327.45 683.392 327.05 684.792 326.25C686.225 325.417 687.358 324.233 688.192 322.7C689.025 321.133 689.442 319.317 689.442 317.25ZM715.081 303.1C718.414 303.1 721.114 304.117 723.181 306.15C725.248 308.15 726.281 311.05 726.281 314.85V331H721.781V315.5C721.781 312.767 721.098 310.683 719.731 309.25C718.364 307.783 716.498 307.05 714.131 307.05C711.731 307.05 709.814 307.8 708.381 309.3C706.981 310.8 706.281 312.983 706.281 315.85V331H701.731V303.6H706.281V307.5C707.181 306.1 708.398 305.017 709.931 304.25C711.498 303.483 713.214 303.1 715.081 303.1ZM758.713 316.25C758.713 317.117 758.663 318.033 758.563 319H736.663C736.83 321.7 737.747 323.817 739.413 325.35C741.113 326.85 743.163 327.6 745.563 327.6C747.53 327.6 749.163 327.15 750.463 326.25C751.797 325.317 752.73 324.083 753.263 322.55H758.163C757.43 325.183 755.963 327.333 753.763 329C751.563 330.633 748.83 331.45 745.563 331.45C742.963 331.45 740.63 330.867 738.563 329.7C736.53 328.533 734.93 326.883 733.763 324.75C732.597 322.583 732.013 320.083 732.013 317.25C732.013 314.417 732.58 311.933 733.713 309.8C734.847 307.667 736.43 306.033 738.463 304.9C740.53 303.733 742.897 303.15 745.563 303.15C748.163 303.15 750.463 303.717 752.463 304.85C754.463 305.983 755.997 307.55 757.063 309.55C758.163 311.517 758.713 313.75 758.713 316.25ZM754.013 315.3C754.013 313.567 753.63 312.083 752.863 310.85C752.097 309.583 751.047 308.633 749.713 308C748.413 307.333 746.963 307 745.363 307C743.063 307 741.097 307.733 739.463 309.2C737.863 310.667 736.947 312.7 736.713 315.3H754.013ZM768.119 327.25H781.569V331H762.919V327.25L776.219 307.3H763.019V303.6H781.469V307.3L768.119 327.25ZM798.623 307.35H792.873V331H788.323V307.35H784.773V303.6H788.323V301.65C788.323 298.583 789.106 296.35 790.673 294.95C792.273 293.517 794.823 292.8 798.323 292.8V296.6C796.323 296.6 794.906 297 794.073 297.8C793.273 298.567 792.873 299.85 792.873 301.65V303.6H798.623V307.35Z" fill="#F8F8FF"/>
<path d="M427.565 344.594L400 314" stroke="#F8F8FF" stroke-width="2.5" stroke-miterlimit="10" stroke-linecap="square"/>
<path d="M400 314L427.565 283.406" stroke="#F8F8FF" stroke-width="2.5" stroke-miterlimit="10" stroke-linecap="square"/>
<path d="M492.435 283.406L520 314" stroke="#F8F8FF" stroke-width="2.5" stroke-miterlimit="10" stroke-linecap="square"/>
<path d="M520 314L492.435 344.594" stroke="#F8F8FF" stroke-width="2.5" stroke-miterlimit="10" stroke-linecap="square"/>
<path d="M436.188 364L485.502 264" stroke="#F8F8FF" stroke-width="2.5" stroke-miterlimit="10" stroke-linecap="square"/>
</svg>
