<svg width="221" height="44" viewBox="0 0 221 44" fill="none" xmlns="http://www.w3.org/2000/svg">
<path d="M13.4853 34.2376L2 22" stroke="#F8F8FF" stroke-width="2" stroke-miterlimit="10" stroke-linecap="square"/>
<path d="M2 22L13.4853 9.76245" stroke="#F8F8FF" stroke-width="2" stroke-miterlimit="10" stroke-linecap="square"/>
<path d="M40.5146 9.76245L51.9999 22" stroke="#F8F8FF" stroke-width="2" stroke-miterlimit="10" stroke-linecap="square"/>
<path d="M51.9999 22L40.5146 34.2376" stroke="#F8F8FF" stroke-width="2" stroke-miterlimit="10" stroke-linecap="square"/>
<path d="M17.0782 42L37.6257 2" stroke="#F8F8FF" stroke-width="2" stroke-miterlimit="10" stroke-linecap="square"/>
<path d="M83.192 17.724C84.1307 17.724 84.9667 17.922 85.7 18.318C86.4333 18.6993 87.0127 19.2787 87.438 20.056C87.8633 20.8333 88.076 21.7793 88.076 22.894V30H86.096V23.18C86.096 21.9773 85.7953 21.0607 85.194 20.43C84.6073 19.7847 83.808 19.462 82.796 19.462C81.7547 19.462 80.926 19.7993 80.31 20.474C79.694 21.134 79.386 22.0947 79.386 23.356V30H77.406V23.18C77.406 21.9773 77.1053 21.0607 76.504 20.43C75.9173 19.7847 75.118 19.462 74.106 19.462C73.0647 19.462 72.236 19.7993 71.62 20.474C71.004 21.134 70.696 22.0947 70.696 23.356V30H68.694V17.944H70.696V19.682C71.092 19.0513 71.62 18.5673 72.28 18.23C72.9547 17.8927 73.6953 17.724 74.502 17.724C75.514 17.724 76.4087 17.9513 77.186 18.406C77.9633 18.8607 78.5427 19.528 78.924 20.408C79.2613 19.5573 79.8187 18.8973 80.596 18.428C81.3733 17.9587 82.2387 17.724 83.192 17.724ZM90.612 23.928C90.612 22.696 90.8613 21.618 91.36 20.694C91.8587 19.7553 92.5407 19.0293 93.406 18.516C94.286 18.0027 95.2613 17.746 96.332 17.746C97.388 17.746 98.3047 17.9733 99.082 18.428C99.8593 18.8827 100.439 19.4547 100.82 20.144V17.944H102.844V30H100.82V27.756C100.424 28.46 99.83 29.0467 99.038 29.516C98.2607 29.9707 97.3513 30.198 96.31 30.198C95.2393 30.198 94.2713 29.934 93.406 29.406C92.5407 28.878 91.8587 28.1373 91.36 27.184C90.8613 26.2307 90.612 25.1453 90.612 23.928ZM100.82 23.95C100.82 23.0407 100.637 22.2487 100.27 21.574C99.9033 20.8993 99.4047 20.386 98.774 20.034C98.158 19.6673 97.476 19.484 96.728 19.484C95.98 19.484 95.298 19.66 94.682 20.012C94.066 20.364 93.5747 20.8773 93.208 21.552C92.8413 22.2267 92.658 23.0187 92.658 23.928C92.658 24.852 92.8413 25.6587 93.208 26.348C93.5747 27.0227 94.066 27.5433 94.682 27.91C95.298 28.262 95.98 28.438 96.728 28.438C97.476 28.438 98.158 28.262 98.774 27.91C99.4047 27.5433 99.9033 27.0227 100.27 26.348C100.637 25.6587 100.82 24.8593 100.82 23.95ZM111.199 17.746C112.241 17.746 113.15 17.9733 113.927 18.428C114.719 18.8827 115.306 19.4547 115.687 20.144V17.944H117.711V30.264C117.711 31.364 117.477 32.3393 117.007 33.19C116.538 34.0553 115.863 34.73 114.983 35.214C114.118 35.698 113.106 35.94 111.947 35.94C110.363 35.94 109.043 35.566 107.987 34.818C106.931 34.07 106.308 33.0507 106.117 31.76H108.097C108.317 32.4933 108.772 33.08 109.461 33.52C110.151 33.9747 110.979 34.202 111.947 34.202C113.047 34.202 113.942 33.8573 114.631 33.168C115.335 32.4787 115.687 31.5107 115.687 30.264V27.734C115.291 28.438 114.705 29.0247 113.927 29.494C113.15 29.9633 112.241 30.198 111.199 30.198C110.129 30.198 109.153 29.934 108.273 29.406C107.408 28.878 106.726 28.1373 106.227 27.184C105.729 26.2307 105.479 25.1453 105.479 23.928C105.479 22.696 105.729 21.618 106.227 20.694C106.726 19.7553 107.408 19.0293 108.273 18.516C109.153 18.0027 110.129 17.746 111.199 17.746ZM115.687 23.95C115.687 23.0407 115.504 22.2487 115.137 21.574C114.771 20.8993 114.272 20.386 113.641 20.034C113.025 19.6673 112.343 19.484 111.595 19.484C110.847 19.484 110.165 19.66 109.549 20.012C108.933 20.364 108.442 20.8773 108.075 21.552C107.709 22.2267 107.525 23.0187 107.525 23.928C107.525 24.852 107.709 25.6587 108.075 26.348C108.442 27.0227 108.933 27.5433 109.549 27.91C110.165 28.262 110.847 28.438 111.595 28.438C112.343 28.438 113.025 28.262 113.641 27.91C114.272 27.5433 114.771 27.0227 115.137 26.348C115.504 25.6587 115.687 24.8593 115.687 23.95ZM120.346 23.928C120.346 22.696 120.596 21.618 121.094 20.694C121.593 19.7553 122.275 19.0293 123.14 18.516C124.02 18.0027 124.996 17.746 126.066 17.746C127.122 17.746 128.039 17.9733 128.816 18.428C129.594 18.8827 130.173 19.4547 130.554 20.144V17.944H132.578V30H130.554V27.756C130.158 28.46 129.564 29.0467 128.772 29.516C127.995 29.9707 127.086 30.198 126.044 30.198C124.974 30.198 124.006 29.934 123.14 29.406C122.275 28.878 121.593 28.1373 121.094 27.184C120.596 26.2307 120.346 25.1453 120.346 23.928ZM130.554 23.95C130.554 23.0407 130.371 22.2487 130.004 21.574C129.638 20.8993 129.139 20.386 128.508 20.034C127.892 19.6673 127.21 19.484 126.462 19.484C125.714 19.484 125.032 19.66 124.416 20.012C123.8 20.364 123.309 20.8773 122.942 21.552C122.576 22.2267 122.392 23.0187 122.392 23.928C122.392 24.852 122.576 25.6587 122.942 26.348C123.309 27.0227 123.8 27.5433 124.416 27.91C125.032 28.262 125.714 28.438 126.462 28.438C127.21 28.438 127.892 28.262 128.508 27.91C129.139 27.5433 129.638 27.0227 130.004 26.348C130.371 25.6587 130.554 24.8593 130.554 23.95ZM141.836 17.724C143.302 17.724 144.49 18.1713 145.4 19.066C146.309 19.946 146.764 21.222 146.764 22.894V30H144.784V23.18C144.784 21.9773 144.483 21.0607 143.882 20.43C143.28 19.7847 142.459 19.462 141.418 19.462C140.362 19.462 139.518 19.792 138.888 20.452C138.272 21.112 137.964 22.0727 137.964 23.334V30H135.962V17.944H137.964V19.66C138.36 19.044 138.895 18.5673 139.57 18.23C140.259 17.8927 141.014 17.724 141.836 17.724ZM161.034 23.51C161.034 23.8913 161.012 24.2947 160.968 24.72H151.332C151.405 25.908 151.809 26.8393 152.542 27.514C153.29 28.174 154.192 28.504 155.248 28.504C156.113 28.504 156.832 28.306 157.404 27.91C157.991 27.4993 158.401 26.9567 158.636 26.282H160.792C160.469 27.4407 159.824 28.3867 158.856 29.12C157.888 29.8387 156.685 30.198 155.248 30.198C154.104 30.198 153.077 29.9413 152.168 29.428C151.273 28.9147 150.569 28.1887 150.056 27.25C149.543 26.2967 149.286 25.1967 149.286 23.95C149.286 22.7033 149.535 21.6107 150.034 20.672C150.533 19.7333 151.229 19.0147 152.124 18.516C153.033 18.0027 154.075 17.746 155.248 17.746C156.392 17.746 157.404 17.9953 158.284 18.494C159.164 18.9927 159.839 19.682 160.308 20.562C160.792 21.4273 161.034 22.41 161.034 23.51ZM158.966 23.092C158.966 22.3293 158.797 21.6767 158.46 21.134C158.123 20.5767 157.661 20.1587 157.074 19.88C156.502 19.5867 155.864 19.44 155.16 19.44C154.148 19.44 153.283 19.7627 152.564 20.408C151.86 21.0533 151.457 21.948 151.354 23.092H158.966ZM165.172 28.35H171.09V30H162.884V28.35L168.736 19.572H162.928V17.944H171.046V19.572L165.172 28.35ZM178.594 19.594H176.064V30H174.062V19.594H172.5V17.944H174.062V17.086C174.062 15.7367 174.407 14.754 175.096 14.138C175.8 13.5073 176.922 13.192 178.462 13.192V14.864C177.582 14.864 176.959 15.04 176.592 15.392C176.24 15.7293 176.064 16.294 176.064 17.086V17.944H178.594V19.594ZM181.566 30.132C181.185 30.132 180.862 30 180.598 29.736C180.334 29.472 180.202 29.1493 180.202 28.768C180.202 28.3867 180.334 28.064 180.598 27.8C180.862 27.536 181.185 27.404 181.566 27.404C181.933 27.404 182.241 27.536 182.49 27.8C182.754 28.064 182.886 28.3867 182.886 28.768C182.886 29.1493 182.754 29.472 182.49 29.736C182.241 30 181.933 30.132 181.566 30.132ZM200.046 17.724C200.984 17.724 201.82 17.922 202.554 18.318C203.287 18.6993 203.866 19.2787 204.292 20.056C204.717 20.8333 204.93 21.7793 204.93 22.894V30H202.95V23.18C202.95 21.9773 202.649 21.0607 202.048 20.43C201.461 19.7847 200.662 19.462 199.65 19.462C198.608 19.462 197.78 19.7993 197.164 20.474C196.548 21.134 196.24 22.0947 196.24 23.356V30H194.26V23.18C194.26 21.9773 193.959 21.0607 193.358 20.43C192.771 19.7847 191.972 19.462 190.96 19.462C189.918 19.462 189.09 19.7993 188.474 20.474C187.858 21.134 187.55 22.0947 187.55 23.356V30H185.548V17.944H187.55V19.682C187.946 19.0513 188.474 18.5673 189.134 18.23C189.808 17.8927 190.549 17.724 191.356 17.724C192.368 17.724 193.262 17.9513 194.04 18.406C194.817 18.8607 195.396 19.528 195.778 20.408C196.115 19.5573 196.672 18.8973 197.45 18.428C198.227 17.9587 199.092 17.724 200.046 17.724ZM219.214 23.51C219.214 23.8913 219.192 24.2947 219.148 24.72H209.512C209.585 25.908 209.988 26.8393 210.722 27.514C211.47 28.174 212.372 28.504 213.428 28.504C214.293 28.504 215.012 28.306 215.584 27.91C216.17 27.4993 216.581 26.9567 216.816 26.282H218.972C218.649 27.4407 218.004 28.3867 217.036 29.12C216.068 29.8387 214.865 30.198 213.428 30.198C212.284 30.198 211.257 29.9413 210.348 29.428C209.453 28.9147 208.749 28.1887 208.236 27.25C207.722 26.2967 207.466 25.1967 207.466 23.95C207.466 22.7033 207.715 21.6107 208.214 20.672C208.712 19.7333 209.409 19.0147 210.304 18.516C211.213 18.0027 212.254 17.746 213.428 17.746C214.572 17.746 215.584 17.9953 216.464 18.494C217.344 18.9927 218.018 19.682 218.488 20.562C218.972 21.4273 219.214 22.41 219.214 23.51ZM217.146 23.092C217.146 22.3293 216.977 21.6767 216.64 21.134C216.302 20.5767 215.84 20.1587 215.254 19.88C214.682 19.5867 214.044 19.44 213.34 19.44C212.328 19.44 211.462 19.7627 210.744 20.408C210.04 21.0533 209.636 21.948 209.534 23.092H217.146Z" fill="#F8F8FF"/>
</svg>
