<svg width="460" height="460" viewBox="0 0 460 460" fill="none" xmlns="http://www.w3.org/2000/svg">
<rect width="250" height="250" transform="translate(105 105)" fill="#F8F8FF"/>
<path d="M205.927 1.17116C128.027 9.17116 58.1268 57.9711 23.4268 128.571C-20.7732 218.671 -1.17325 328.171 71.6268 397.071C106.027 429.571 147.527 449.771 196.427 457.671C211.827 460.171 246.927 460.271 262.927 457.771C313.727 449.871 356.927 428.171 392.527 392.671C428.027 357.071 449.727 313.871 457.627 263.071C460.127 247.071 460.027 211.971 457.527 196.571C449.627 147.671 429.427 106.171 396.927 71.7711C348.127 20.2711 276.927 -6.02884 205.927 1.17116ZM251.927 161.771C256.927 163.271 260.927 164.971 260.927 165.571C260.927 166.671 217.927 300.371 217.327 300.971C216.627 301.771 197.927 295.571 197.927 294.571C197.827 292.271 241.327 159.071 242.127 159.071C242.627 159.071 247.027 160.271 251.927 161.771ZM165.227 208.271L143.427 230.071L165.227 251.871L186.927 273.571L179.627 280.871L172.427 288.071L143.427 259.071L114.427 230.071L143.427 201.071L172.427 172.071L179.627 179.271L186.927 186.571L165.227 208.271ZM316.427 259.071L287.427 288.071L280.227 280.871L272.927 273.571L294.627 251.871L316.427 230.071L294.627 208.271L272.927 186.571L280.127 179.271L287.427 172.071L316.427 201.071L345.427 230.071L316.427 259.071Z" fill="#101D42"/>
</svg>
